#!OML:ASF F:\VICON\USERDATA\INSTALL\rory3\rory3.ASF
:FULLY-SPECIFIED
:DEGREES
63
root 0.8093034839441892 17.91003356267859 24.99954293345 -3.131484039543471 -1.2485736334913293 2.2846594413310144
lfemur 1.042321923699486 -3.2500691709079406 -27.570638081073547
ltibia 22.685117675999727
lfoot -14.84827324748428 3.6686433364465794
ltoes 1.2726149072425534
rfemur -28.415495566709986 0.0775892846300934 19.96512029046164
rtibia 53.09881217839225
rfoot -8.889252939353979 -9.998247378573014
rtoes 1.591712780333123
lowerback 10.21527242662782 0.04253246821725987 -2.6273497892052786
upperback 0.6625207392100335 -0.22771335243132285 0.7716008175688805
thorax -4.9743535020225655 -0.04368634678431427 2.36839743946904
lowerneck -16.535451748361194 -2.6615172130805416 -2.4073968328683
upperneck 20.48764756007831 -3.3714668910191343 1.227052914088422
head 9.238628381618767 -1.6329895213151988 0.38911706666162316
lclavicle -1.6196383955758982e-15 1.2127012087960452e-15
lhumerus -26.00896969809033 -2.7150106841946187 83.06144515837532
lradius 25.509772347386317
lwrist 5.091153859597346
lhand -26.79850074507878 24.289176885770587
lfingers 7.12502
lthumb -0.22543020205507647 54.26875431833286
rclavicle -1.6196383955758982e-15 1.2127012087960452e-15
rhumerus -29.416541156220614 -19.238389717501384 -79.27796663696896
rradius 25.290849939075024
rwrist 5.446429577920556
rhand -17.270467882699723 22.583398056189196
rfingers 7.12502
rthumb 8.974239972087151 -7.203033473932004
64
root 0.7784639813981322 17.883207621302784 25.65596114233437 -2.5129709405563814 -0.6125544242595855 2.7218054549682518
lfemur 4.129507247850821 -2.9081986476287205 -28.036158666048387
ltibia 19.057809489210797
lfoot -15.337478755678504 3.155045741746995
ltoes 0.5048220807619228
rfemur -29.316659672806523 1.4004573213603435 18.749221529620556
rtibia 41.91664317720301
rfoot -8.77118127976448 -13.094131943784948
rtoes 0.5435309835444815
lowerback 9.953915517290248 -0.29347910323060744 -3.4024289071023093
upperback 0.6034353353305625 -0.7499195757279864 0.8069860596557392
thorax -4.874168987771168 -0.28742742672692645 2.8342845137231447
lowerneck -16.6151646659148 -2.6720591548174264 -2.5071152276604782
upperneck 20.34490715932504 -3.384811219187683 1.3223922305043294
head 9.19818914306131 -1.6351410558519244 0.4334264272038859
lclavicle -1.7846637179621698e-15 1.0616445160326475e-15
lhumerus -24.02155940509339 -4.011085484623705 82.83229579623347
lradius 26.773428180273502
lwrist 5.962222629652859
lhand -26.8002771296645 24.626938232661033
lfingers 7.12502
lthumb -0.2272034078991677 54.60467696769072
rclavicle -1.7846637179621698e-15 1.0616445160326475e-15
rhumerus -29.97308081110242 -19.24372865548361 -79.13708882020913
rradius 25.27403061149928
rwrist 5.305827395731802
rhand -17.168975309960558 22.74931917076749
rfingers 7.12502
rthumb 9.072163751497966 -7.030873586336256
65
root 0.736837427148326 17.84939556090443 26.86477182675693 -1.8547240550928417 0.1556944786535861 3.2385766784021954
lfemur 7.918226191428943 -2.592003853290016 -28.14428293730451
ltibia 15.71926377878538
lfoot -15.33591798979441 2.465888529167188
ltoes -0.6529416784352984
rfemur -28.93009597656619 3.3285098322373816 17.426941082990343
rtibia 30.768057473103397
rfoot -8.438248280614195 -15.91205752103897
rtoes -0.32594047975923557
lowerback 9.64631271818947 -0.5668129433757255 -4.0436872277375855
upperback 0.5205950974466236 -1.1733463091776533 0.8649928221768486
thorax -4.750541400635475 -0.48529288538235194 3.3436647939421045
lowerneck -16.67207162919062 -2.6749270284421933 -2.541582259543139
upperneck 20.259021847466933 -3.3920726337574734 1.4258426314830959
head 9.177859806517333 -1.6337474412524116 0.47387752718025433
lclavicle -1.479039724371115e-15 1.343878758841075e-15
lhumerus -22.033483390326776 -4.855287042068683 82.5779874139327
lradius 28.082745305079623
lwrist 6.829150271862333
lhand -26.8010392583653 24.850244510095276
lfingers 7.12502
lthumb -0.22799488711823013 54.824995249691796
rclavicle -1.479039724371115e-15 1.343878758841075e-15
rhumerus -30.455424961135527 -19.546106450486814 -78.7386048342962
rradius 25.03038402144828
rwrist 5.716637861922681
rhand -17.079513487919574 23.013120099280066
rfingers 7.12502
rthumb 9.158488234710493 -6.763487554429511
66
root 0.6670857212627569 17.79182502894373 27.107019314232446 -1.376201950088642 0.733778756167542 3.44151569623063
lfemur 10.781684438505987 -2.694756012519784 -28.32947285387451
ltibia 12.55389770274952
lfoot -15.51398290024973 1.4004038934045926
ltoes -2.8391100005667944
rfemur -28.727877493513542 4.954443644220796 16.1193201375276
rtibia 21.698858557509734
rfoot -8.717854936854092 -17.466198411200867
rtoes -1.7371564445478236
lowerback 9.368650581221049 -0.8553107211659398 -4.687099269144614
upperback 0.4305406567113501 -1.612652463719415 0.9056173837195614
thorax -4.668989914770009 -0.6907289482532653 3.671538758467679
lowerneck -16.76310868086801 -2.6893961918235134 -2.579072440331558
upperneck 20.201181520260924 -3.418805503782836 1.4731465047838164
head 9.167547173423353 -1.6405824781119114 0.48803265935565066
lclavicle -1.9016428254870003e-15 9.548785422400529e-16
lhumerus -20.683044306116486 -5.552252895274237 82.31655603090546
lradius 29.037779019998663
lwrist 7.313045429852014
lhand -27.04257495432841 24.480526954053545
lfingers 7.12502
lthumb -0.4612857961892233 54.45249249996205
rclavicle -1.9016428254870003e-15 9.548785422400527e-16
rhumerus -31.05967568530269 -20.475916014562685 -78.30448423705316
rradius 24.425009133457408
rwrist 6.266705810602112
rhand -17.159123123274803 23.109918246244717
rfingers 7.12502
rthumb 9.081670619374293 -6.668941389279167
67
root 0.5983893264857827 17.728898264507745 28.021656801686113 -1.1085279695394048 1.2869399888380824 3.5311496086427474
lfemur 13.579139188142967 -3.097226916981549 -28.10290674282153
ltibia 12.043587166816707
lfoot -15.104537293262066 0.43853828802995
ltoes -5.651444490641017
rfemur -28.202989715921944 5.830781279688717 15.899417816988827
rtibia 17.853871639414603
rfoot -8.488605282722638 -16.55700874956487
rtoes -2.8323629101339534
lowerback 9.248160283224875 -1.0378798474016566 -4.900338936471431
upperback 0.39226156377501453 -1.8691791119515275 1.045589260359539
thorax -4.612858194301879 -0.8129309819480544 3.9849575097115078
lowerneck -16.84017952773433 -2.692870224950117 -2.5879853012604155
upperneck 20.21134168554283 -3.423414712581212 1.4815261208856703
head 9.18315443221964 -1.6410470928597585 0.49018498502235985
lclavicle -1.7248239129112273e-15 1.1175348792958384e-15
lhumerus -19.573320331507077 -5.679806487483539 82.21338756990704
lradius 29.82570616900763
lwrist 7.57910770891441
lhand -27.469101402041762 23.811360076997076
lfingers 7.12502
lthumb -0.8731950825249388 53.78035857958473
rclavicle -1.7248239129112273e-15 1.1175348792958384e-15
rhumerus -31.565733050434314 -21.614928177774615 -77.55625663819434
rradius 23.698733400016977
rwrist 7.2968417628966975
rhand -17.30482653917717 23.130255111201027
rfingers 7.12502
rthumb 8.941083661958519 -6.656360488193397
68
root 0.5164468485049162 17.66638594712615 28.358072689356867 -1.1293893395649288 1.5158840880310396 3.1413409087429565
lfemur 15.053123633362407 -3.918262631423697 -27.867295638598478
ltibia 13.169805819004427
lfoot -14.242226772714801 -0.9883908664789404
ltoes -9.366138174153285
rfemur -28.576553980919066 5.679979504563481 16.457246038635034
rtibia 18.016748238368802
rfoot -7.840225870823994 -13.932716303624847
rtoes -3.3227005054101553
lowerback 9.218349067525441 -1.2316200773661388 -4.881804103296431
upperback 0.3827555955178722 -2.1116127212090583 1.2478779599976855
thorax -4.611377248469796 -0.931640087671675 4.090888466736768
lowerneck -16.935456284375018 -2.679187361860787 -2.6100560252073253
upperneck 20.248762432645115 -3.394312276944409 1.362485111348743
head 9.203429279135463 -1.6323860652873916 0.4575147551430211
lclavicle -2.166510776578818e-15 7.105858073954851e-16
lhumerus -19.2266988365082 -5.584549874135933 82.22395041260663
lradius 30.213764896166293
lwrist 7.5685776505690585
lhand -28.19200437509357 22.818355868974162
lfingers 7.12502
lthumb -1.5713194062530027 52.7836831375026
rclavicle -2.166510776578818e-15 7.105858073954851e-16
rhumerus -32.21673323077696 -23.248976211835696 -76.71729687273834
rradius 22.72934408675621
rwrist 8.512071678713236
rhand -17.52307428294226 22.885752152151177
rfingers 7.12502
rthumb 8.73049238326119 -6.909738123279708
69
root 0.4543033997410861 17.642517394461784 29.98047175703426 -1.2941217260729547 1.7166127233416972 2.5849570562984003
lfemur 16.363783226788158 -4.66323327281527 -26.755473347707404
ltibia 17.773133522436726
lfoot -11.281242407626323 -2.7546619953240086
ltoes -12.52688072065747
rfemur -28.020666894309542 5.18960509089324 18.289217362272467
rtibia 22.076007745664615
rfoot -5.92082564441286 -10.03653754947809
rtoes -1.984700033108123
lowerback 9.284919695002092 -1.283757701630817 -4.170527935774355
upperback 0.4031819133837998 -2.09299612253269 1.6087321849093388
thorax -4.617665406942617 -0.9337497314013214 4.194714132336058
lowerneck -16.947257131310437 -2.6168408489241894 -2.561505482818964
upperneck 20.390602000283423 -3.282173218838077 1.1807317661197188
head 9.251272412927355 -1.595666574158956 0.41710462955263294
lclavicle -1.5330241465033122e-15 1.2940116156780847e-15
lhumerus -19.13869107324777 -4.699756455075586 82.4713941939026
lradius 30.59324867485611
lwrist 7.626927249459424
lhand -28.773110638174437 22.204202941139595
lfingers 7.12502
lthumb -2.132500034588006 52.16551859954758
rclavicle -1.5330241465033122e-15 1.2940116156780847e-15
rhumerus -32.71142565865721 -24.77197912464892 -75.4833015738712
rradius 21.861578730280716
rwrist 10.32228673652742
rhand -17.633420126040544 22.719977376212803
rfingers 7.12502
rthumb 8.624021688150474 -7.083180122904785
